<?xml version="1.0" standalone="no"?>
<!DOCTYPE svg PUBLIC "-//W3C//DTD SVG 20010904//EN"
    "http://www.w3.org/TR/2001/REC-SVG-20010904/DTD/svg10.dtd">
<svg height="329.000000pt"
     preserveAspectRatio="xMidYMid meet"
     version="1.0"
     viewBox="0 0 500.000000 329.000000"
     width="500.000000pt"
     xmlns="http://www.w3.org/2000/svg">
    <metadata>
        Created by potrace 1.15, written by Peter Selinger 2001-2017
    </metadata>
    <g
        fill="#000000"
        stroke="none"
        transform="translate(0.000000,329.000000) scale(0.100000,-0.100000)">
        <path d="M0 1645 l0 -1645 2500 0 2500 0 0 1645 0 1645 -2500 0 -2500 0 0
-1645z m1247 973 c50 -47 53 -62 53 -291 l0 -214 136 -59 c149 -64 196 -100
213 -161 7 -24 11 -202 11 -475 l0 -438 -310 0 -310 0 0 310 0 310 -85 0 -85
0 0 -310 0 -310 -310 0 -311 0 3 653 3 652 28 57 c32 66 100 130 160 153 72
27 699 154 740 150 23 -2 49 -13 64 -27z m933 -513 l0 -125 80 0 80 0 0 125 0
125 60 0 60 0 0 -125 0 -125 48 0 48 0 1 -60 0 -60 -48 0 -49 0 0 -223 c0
-251 -8 -300 -66 -406 -20 -36 -31 -68 -27 -72 16 -16 122 -49 158 -49 l35 0
0 -66 0 -66 -57 7 c-72 9 -155 37 -205 70 l-37 25 -36 -24 c-44 -30 -142 -63
-212 -72 l-53 -7 0 65 0 65 56 7 c44 5 121 33 142 51 2 1 -13 31 -32 66 -60
112 -66 146 -66 401 l0 228 -50 0 -50 0 0 60 0 60 50 0 50 0 0 125 0 125 60 0
60 0 0 -125z m2315 96 c67 -31 108 -73 138 -140 18 -41 19 -70 19 -497 l1
-453 46 -3 46 -3 3 -62 3 -63 -376 0 -375 0 0 65 0 65 45 0 44 0 3 453 3 452
24 53 c64 142 232 202 376 133z m-1247 -73 l3 -56 -125 -167 c-69 -92 -127
-174 -128 -183 -3 -15 13 -17 140 -20 l142 -3 0 -59 0 -60 -140 0 -140 0 -2
-297 -3 -298 -173 -3 -173 -2 3 62 3 63 105 2 105 1 3 236 2 236 -155 0 -155
0 0 60 0 60 155 0 155 0 0 31 c0 23 26 69 105 180 l104 149 -244 0 -245 0 0
65 0 65 328 -2 327 -3 3 -57z m720 -5 l3 -63 -96 0 -95 0 0 -85 0 -85 110 0
110 0 0 -65 0 -65 -110 0 -110 0 0 -390 0 -390 -65 0 -65 0 0 390 0 390 -105
0 -105 0 0 65 0 65 105 0 105 0 0 85 0 85 -90 0 -90 0 0 65 0 65 248 -2 247
-3 3 -62z m-378 -748 l0 -265 -60 0 -60 0 0 265 0 265 60 0 60 0 0 -265z m380
0 l0 -265 -65 0 -65 0 0 265 0 265 65 0 65 0 0 -265z"/>
        <path d="M2182 1627 l3 -233 33 -67 c18 -37 37 -67 41 -67 12 0 48 71 65 129
12 42 16 102 16 263 l0 208 -81 0 -81 0 4 -233z"/>
        <path d="M4315 2096 c-79 -39 -97 -77 -93 -204 l3 -97 153 -3 154 -3 -4 110
c-3 118 -12 141 -70 184 -34 25 -105 31 -143 13z"/>
        <path d="M4220 1560 l0 -110 155 0 155 0 0 110 0 110 -155 0 -155 0 0 -110z"/>
        <path d="M4227 1323 c-4 -3 -7 -53 -7 -110 l0 -103 155 0 155 0 0 110 0 110
-148 0 c-82 0 -152 -3 -155 -7z"/>
    </g>
</svg>
