<?xml version="1.0" standalone="no"?>
<!DOCTYPE svg PUBLIC "-//W3C//DTD SVG 20010904//EN"
 "http://www.w3.org/TR/2001/REC-SVG-20010904/DTD/svg10.dtd">
<svg version="1.0" xmlns="http://www.w3.org/2000/svg"
 width="640.000000pt" height="313.000000pt" viewBox="0 0 640.000000 313.000000"
 preserveAspectRatio="xMidYMid meet">
<metadata>
Created by potrace 1.14, written by Peter Selinger 2001-2017
</metadata>
<g transform="translate(0.000000,313.000000) scale(0.100000,-0.100000)"
fill="#000000" stroke="none">
<path d="M2923 2710 c-37 -22 -79 -81 -94 -131 -13 -46 -13 -145 1 -202 20
-79 102 -157 166 -157 61 0 137 70 163 153 18 52 15 163 -4 216 -43 122 -145
175 -232 121z"/>
<path d="M3402 2661 c-80 -59 -123 -145 -123 -248 0 -120 45 -188 138 -208 82
-17 162 35 213 139 52 106 40 208 -33 284 -67 70 -129 80 -195 33z"/>
<path d="M2555 2336 c-41 -18 -70 -52 -97 -111 -32 -70 -33 -202 -1 -260 37
-70 99 -115 156 -115 80 0 156 54 181 127 19 54 21 165 5 214 -38 112 -159
185 -244 145z"/>
<path d="M3702 2221 c-87 -22 -126 -108 -120 -265 3 -90 7 -108 28 -139 32
-47 88 -72 161 -71 79 1 127 28 159 90 22 42 25 62 25 144 0 83 -3 101 -25
140 -46 82 -139 123 -228 101z"/>
<path d="M3075 2026 c-53 -25 -93 -63 -143 -136 -39 -59 -124 -144 -223 -227
-44 -36 -96 -86 -115 -111 -110 -144 -66 -361 91 -445 35 -19 56 -22 155 -21
64 0 161 8 220 18 119 21 202 17 319 -14 87 -23 236 -26 294 -6 97 35 159 128
165 249 3 38 -1 89 -9 115 -14 49 -32 70 -222 250 -47 45 -120 124 -161 175
-117 147 -161 177 -263 177 -40 0 -73 -8 -108 -24z m60 -525 l0 -283 -135 1
c-128 2 -137 3 -180 29 -59 36 -90 95 -90 173 0 70 9 96 51 143 45 52 74 64
165 68 l79 3 3 78 3 78 52 -3 52 -3 0 -284z m165 -15 c0 -163 2 -166 96 -166
l64 0 0 150 0 151 58 -3 57 -3 2 -197 2 -198 -148 0 c-138 0 -150 2 -182 23
-54 36 -59 56 -59 225 l0 152 55 0 55 0 0 -134z"/>
<path d="M2892 1524 c-28 -19 -52 -65 -52 -99 0 -34 24 -80 52 -99 25 -18 124
-22 130 -6 2 5 2 57 0 115 l-3 105 -52 0 c-31 0 -62 -6 -75 -16z"/>
<path d="M5340 1970 l0 -30 -185 0 -185 0 0 -415 0 -415 65 0 65 0 0 365 0
365 360 0 360 0 0 50 0 50 -165 0 -165 0 0 30 0 30 -75 0 -75 0 0 -30z"/>
<path d="M635 1958 c-3 -7 -4 -202 -3 -433 l3 -420 300 0 301 0 49 26 c74 37
108 92 113 179 5 91 -9 130 -68 183 l-49 44 29 28 c45 43 63 101 58 184 -5 92
-38 143 -123 186 l-59 30 -273 3 c-219 3 -274 1 -278 -10z m543 -178 c34 -32
30 -93 -7 -131 l-29 -29 -161 0 -161 0 0 90 0 90 168 0 c155 0 170 -2 190 -20z
m6 -359 c38 -35 36 -92 -3 -132 l-29 -29 -166 0 -166 0 0 96 0 95 169 -3 c163
-3 170 -4 195 -27z"/>
<path d="M2187 1964 c-4 -4 -7 -40 -7 -81 l0 -73 90 0 91 0 -3 78 -3 77 -80 3
c-45 1 -84 0 -88 -4z"/>
<path d="M4037 1895 c-11 -77 -17 -75 179 -75 115 0 174 -4 174 -10 0 -20 -30
-70 -43 -70 -6 -1 -73 -1 -148 0 -120 1 -137 -1 -143 -16 -4 -9 -6 -151 -6
-315 l1 -299 292 -2 c161 0 321 -2 356 -4 35 -1 80 3 100 9 49 17 52 38 49
356 l-3 266 -152 3 c-84 1 -153 5 -153 8 0 2 6 20 14 39 l15 34 148 3 148 3 3
58 3 57 -414 0 -414 0 -6 -45z m673 -335 l0 -70 -255 0 -255 0 0 63 c0 35 3
67 7 70 3 4 118 7 255 7 l248 0 0 -70z m-2 -262 l-3 -73 -252 -3 -253 -2 0 75
0 75 255 0 256 0 -3 -72z"/>
<path d="M5210 1791 c0 -16 -8 -20 -42 -23 l-43 -3 0 -45 0 -45 43 -3 42 -3 0
-90 0 -90 241 3 c239 3 241 3 260 27 14 17 19 39 19 87 0 35 3 64 8 65 4 1 21
2 37 4 17 1 36 3 43 4 7 1 12 17 12 46 l0 45 -50 0 c-43 0 -50 3 -50 20 0 18
-7 20 -65 20 -58 0 -65 -2 -65 -20 0 -19 -7 -20 -135 -20 -128 0 -135 1 -135
20 0 18 -7 20 -60 20 -53 0 -60 -2 -60 -19z m390 -156 c0 -55 -5 -57 -155 -53
l-110 3 -3 48 -3 47 135 0 136 0 0 -45z"/>
<path d="M1498 1734 c-5 -4 -8 -34 -8 -66 l0 -58 171 0 c134 0 178 -3 204 -15
33 -16 55 -50 55 -85 0 -19 -8 -20 -157 -20 -178 0 -216 -11 -267 -71 -38 -45
-48 -74 -47 -143 1 -69 29 -114 91 -146 36 -18 59 -20 295 -20 l255 0 0 225
c0 153 -4 233 -12 252 -23 52 -68 101 -115 124 -44 21 -63 23 -253 27 -113 2
-208 0 -212 -4z m420 -436 l3 -68 -135 0 c-133 0 -135 0 -155 26 -28 36 -26
50 9 85 l29 30 123 -3 123 -3 3 -67z"/>
<path d="M2213 1733 l-33 -4 0 -310 0 -309 90 0 90 0 0 309 0 309 -22 6 c-24
6 -70 6 -125 -1z"/>
<path d="M5147 1453 c-4 -3 -7 -25 -7 -47 0 -40 2 -42 68 -80 37 -22 82 -48
100 -58 17 -11 32 -24 32 -29 0 -20 -71 -39 -145 -39 l-75 0 0 -45 0 -45 99 0
c96 0 138 9 215 45 31 15 35 14 87 -10 48 -22 67 -25 172 -25 l117 0 0 45 0
45 -90 0 c-81 0 -140 13 -140 30 0 3 37 28 83 55 162 96 154 89 149 129 l-4
36 -327 0 c-180 0 -331 -3 -334 -7z"/>
</g>
</svg>
